<svg id="Ebene_1" data-name="Ebene 1" xmlns="http://www.w3.org/2000/svg" viewBox="0 0 349.28 195.65"><defs><style>.cls-1{fill:#e6007c;}.cls-1,.cls-2{fill-rule:evenodd;}.cls-2{fill:#432282;}.cls-3{fill:#878988;}</style></defs><title>CM_Logo_Relaunch2018_4c</title><path class="cls-1" d="M242.86,85.71l-11.18-.24,13-57C186,33.92,162.93,83,162.93,83l-10.79-.24c35.67-72.35,105.57-64.09,105.57-64.09L242.86,85.71Z"/><path class="cls-2" d="M249.9,85.47l9.34-37.79s34.6,0,59.87,37.79c0,0,18.37,24,12.4,59.31,0,0-2.46,20.2-10.27,31.2l-113,.29V165.66H313.52s20.13-34.23-1.46-71.53c0,0-11.17-24.36-43.94-34.23l-7,25.57Z"/><path class="cls-2" d="M34.42,110.68a26.66,26.66,0,0,1-1.23,9.74s5.26.09,8.06-3.74c3.62-4.78,0-11.21,0-11.21a6.33,6.33,0,0,0-7.65-2.61s-14.68,4.47-16.07,30H26.2s1.81-16.48,8.22-22.13Z"/><path class="cls-2" d="M54.16,123.9s2.47-12.52,2.47-13.22,1.32-3.39-2.3-5.91c0,0-2.39-2.43-3.7,1.13a137.22,137.22,0,0,0-7.07,27.19h8.53L53,131s2.28-1.54,2.45.29-.2,1.8-.2,1.8l7.24-.1s2.27-2.64,2.74-9.35c0,0,.24-4-2.31-4.7,0,0-3-1.56-8.8,5Z"/><path class="cls-1" d="M43.39,135.54h8.39l-3.7,12.38s-6.3-1.4-5.19-6.78l.5-3Z"/><path class="cls-1" d="M17.53,135.54l8.68-.08s2.9,7.4,11.75,1.59c0,0,3.7-1.65,2.55,2s-5.35,9.3-12.58,9.13c0,0-9,.69-10.45-10.17Z"/><path class="cls-1" d="M55.23,135.46H62.3s-.65,5.5,1.73,5c0,0,1.48.26.66,2.09s-2.76,6.76-6.66,5.56C58,148.09,50.32,145.09,55.23,135.46Z"/><path class="cls-2" d="M67.32,133.37s.58-8.52,2.14-12.6c0,0,.33-3.91,4-.78,0,0,.66,1.21,1.48,0,0,0,.82-2.35,2.47-1.13s3.45,2.6,2.63,6.17c0,0-.91,1.91.66,4.78a2.41,2.41,0,0,1-1.07,2.09,10.34,10.34,0,0,1-2.47,1.47Z"/><path class="cls-1" d="M67.23,135.46h8.68s-2.42,7.59-3.41,10.72-2.22,1.82-2.63,1.65-3-1.39-3.37-2.35-.91.09-.49-2.87.65-4.6.65-4.6Z"/><path class="cls-2" d="M80.77,133.37a22.51,22.51,0,0,1,1.06-4.17s2-5.55,4.33-8,10.93-4.6,14.55-1.56a4,4,0,0,1,1.16,4.52l-.58,2.69s-.25,1.22.16,1.48.91.52.83,1.91a5,5,0,0,1-1,3.13H94.05a13.38,13.38,0,0,0,.41-4.52c-.27-2.09-2.26-2.77-3.37-1.91-1.51,1.18-2.38,3.91-2.8,6.43H80.77Z"/><path class="cls-1" d="M93.86,135.46h7.2s-4.47,9-8.65,12.07c-2.2,1.62-5.46,2.06-9.46-1.35-4.18-3.55-2.45-10.72-2.45-10.72l7.62-.08s-.91,3.46.25,4.54c.39.37,2.21,1.22,4.35-1.91Z"/><path class="cls-2" d="M104.09,133.37s1.72-9.12,2.79-12.08,1.73-2.26,3-2.09c0,0,3,1.48,3.62,2.44,0,0,.82.43.74,2.61a14,14,0,0,0,5.18-5s.41-1.21,2.47.35c0,0,3.7,2,3.62,5.13,0,0,5.51-4,6.25-4.43,0,0,4.77-2.18,5.68,2.43,0,0,1.48,4.43-1.32,10.69H128.6v-1.65s.16-1.91-1.24-.09l-1.81,1.74h-9.62l-.49-1.47a5.48,5.48,0,0,0-1.73,1.47Z"/><path class="cls-1" d="M104.09,135.46h8.08s-2.82,8.63-2.9,9.68c0,0-.08,4.34-3.21,2.43s-3.13-2.87-3.21-4.17a21.73,21.73,0,0,1,.66-5.39Z"/><path class="cls-1" d="M125.35,135.46s-4,7.93-5,10.46c0,0-1.12,2.71-3.54,1.48-1-.52-2.87-.9-2.87-2.87a64.66,64.66,0,0,1,2-9.07Z"/><path class="cls-1" d="M128.52,135.46s-3.26,9.11.65,11.94c0,0,3,1.76,5.1-.26,0,0,2.51-2.22,3.13-3.77.36-.93.89-4.37-.91-3.36a1.54,1.54,0,0,1-2.06-.52c-.77-.6.47-3.35,1.14-4h-7Z"/><path class="cls-1" d="M143.77,135.46h10.08s-1.48,6.61-1.25,8.8a4.32,4.32,0,0,1-.66,3.32s-.65,1.45-3,0-6.12-4.45-5.44-9.8Z"/><path class="cls-1" d="M161.5,135.46H171s-2,8.56-2.05,9.85c0,0,0,3.24-2.6,2.27s-5-2.92-5.52-4.05-.23-4.21.31-5.75Z"/><path class="cls-1" d="M179.82,135.46H189.9c.11,3.63,4.57,2.32,4.57,2.32s-.79,9.93-6.51,10.77c-1.58.24-9.36.76-8.42-10.77Z"/><path class="cls-2" d="M160.86,101.73a6.2,6.2,0,0,0-3.29-7.12s-4-2.83-5.43,2.27-7.12,21.77-8.2,36.49h10.19s3.75-17.31,11.86-23.46c0,0-4.67,20.63-4.51,23.46h9.72s4.13-15.05,10.49-20.71c0,0,1.83-1.78,1.38.81,0,0-3.6,14.81-3.3,19.9H190s6.12-23.79,6.12-30.67c0,0,1.15-4.37-2.6-6.79a16.19,16.19,0,0,0-2.76-1.78c-.76-.17-1.76-1.3-4,.89s-9.11,12.22-10.18,12.62c0,0,.92-5.18,1.07-5.83a5.28,5.28,0,0,0-1.91-5.34c-2.61-2.26-2.61-2.26-3-2.42s-2-1.87-3.75.48-6.36,8.82-6.36,8.82-2.29,4-1.76-1.62Z"/><path class="cls-2" d="M217.29,101s4.44-3.31,6.27,2.59a5.13,5.13,0,0,1-3.44,6.07s-3.37.73-4.44-3.4a5.14,5.14,0,0,1,1.61-5.26Z"/><path class="cls-2" d="M206.57,101s4.52-3.31,6.35,2.51a5.33,5.33,0,0,1-3.44,6.15s-3.45.73-4.44-3.48a5.1,5.1,0,0,1,1.53-5.18Z"/><path class="cls-2" d="M197,133.37s2-13.27,4.36-18.12c0,0,1.3-3,4.67-1.22,0,0,4.44,2.43,3.14,7,0,0-2.68,11.66-3.14,12.3Z"/><path class="cls-2" d="M220.58,114s-4-2.26-4.75,1.86c0,0,.15,6.15-7.58,17.48H221A61,61,0,0,0,223.49,120a4.69,4.69,0,0,0-1-3.88,14,14,0,0,0-1.91-2.11Z"/><path class="cls-1" d="M197,135.46a25.23,25.23,0,0,0-.69,8.39s.23,5.18,5.89,3.73c0,0,2.15-.41,7.43-5.59,0,0,0,5.51,4,6.48,0,0,3.68.81,5.21-.57s3.83-5.5,4.36-6.8c0,0-.53-5.16-2.06-5.64H207.85s-2.08,2.32-1.81,0Z"/><path class="cls-2" d="M225.25,133.37h9.19a46.14,46.14,0,0,1,3.9-14.48,44.32,44.32,0,0,0,3.9-15.13s.69-2.84-2.83-6.8a7.49,7.49,0,0,0-1.91-1.86,2.55,2.55,0,0,0-3.29,1.13s-7.35,13-9,37.14Z"/><path class="cls-2" d="M242.47,133.37h9.27a46.14,46.14,0,0,1,3.9-14.48,44.46,44.46,0,0,0,3.91-15.13s.61-2.84-2.91-6.8a6.84,6.84,0,0,0-1.84-1.86,2.65,2.65,0,0,0-3.37,1.13s-7.35,13-9,37.14Z"/><path class="cls-2" d="M274.63,112.33c-13.5.74-14.31,21-14.31,21h14.85c7.23-4.76,8-10.6,8-10.6,1.6-10.27-8.5-10.44-8.5-10.44Zm-3.06,18.53s-2.22,2.76-1.69-.89A20.87,20.87,0,0,1,274,121.4s1.45-1.38,1.68.64a12,12,0,0,1-4.13,8.82Z"/><path class="cls-1" d="M260.32,135.49h14.56s-6.16,8.52,3.58,2.29c0,0,3.9-2.75,2.45,2,0,0-3.3,9.22-11.72,8.58,0,0-8.88.32-9.26-9.63Z"/><path class="cls-1" d="M284.5,135.49h8.76s-1.41,8.93-2.17,10.31c0,0-.46,2.75-2.45,1.78a8.24,8.24,0,0,1-4.06-2.67s-2.14.24-.54-6.15Z"/><path class="cls-2" d="M293.3,133.37l.77-2.91s4.52,2.27,6.43-3.56c0,0,1.92-2.75-.84-4.53l.92-3.64a2.44,2.44,0,0,0-.61-3.08,9.45,9.45,0,0,0-3-3.15s-1.91-1.78-3.37,2.5a2.11,2.11,0,0,1-2.14-1.13s-2.45-2.59-3.9.89c0,0-2.23,3.64-3.07,18.61Z"/><path class="cls-1" d="M225.11,135.49h9.52c.1,3.64,5.14,2.33,5.14,2.33s-.79,9.92-6.51,10.76c-1.58.24-9.37.76-8.42-10.76Z"/><path class="cls-1" d="M242.4,135.46h9.52c.1,3.63,5.14,2.32,5.14,2.32s-.79,9.93-6.51,10.77c-1.58.24-9.36.76-8.42-10.77Z"/><path class="cls-3" d="M18.78,162.74h.91l3.45,11.41c.18.64.3,1.2.3,1.22s.14-.58.32-1.16l3.45-11.47h.92l1.23,13.62h-.64l-1-11.67c0-.54-.08-1.25-.08-1.29l-.36,1.29-3.53,11.67h-.58L19.69,164.8a9.46,9.46,0,0,1-.4-1.33c0,.38-.1,1.18-.12,1.35l-1,11.54h-.61Z"/><path class="cls-3" d="M33.8,162.74h6.75l-.1.54h-6V169h4.84v.54H34.44v6.27h6.35v.56h-7Z"/><path class="cls-3" d="M46.81,163.28h-3.9v-.54h8.48l-.06.54H47.42v13.08h-.61Z"/><path class="cls-3" d="M56.89,162.74h.81l4.51,13.62h-.69L60,171.71h-5.5L53,176.36h-.64Zm2.94,8.46-2.54-7.86-2.6,7.86Z"/><path class="cls-3" d="M65.68,162.74h.64v13.08h5.75l-.07.54H65.68Z"/><path class="cls-3" d="M75.63,162.74h.63v13.08H82l-.08.54H75.63Z"/><path class="cls-3" d="M82.83,162.74h.68l3.61,10.88c.22.65.42,1.33.62,2,0-.14.31-1.07.59-1.92L92,162.74h.66L88,176.36H87.4Z"/><path class="cls-3" d="M96.09,162.74h6.75l-.1.54h-6V169h4.84v.54H96.73v6.27h6.35v.56h-7Z"/><path class="cls-3" d="M106.85,162.74h2.48a5,5,0,0,1,3.32.85,3.59,3.59,0,0,1,1.29,2.88c0,2.32-1.51,3.54-3.77,3.54h-.1a3.28,3.28,0,0,1,1.74,1.64l2.82,4.71h-.75c-.12-.26-2.44-4.23-3-4.94-.85-1.12-1.13-1.37-2.24-1.37h-1.17v6.31h-.64Zm2.52,6.87a4.61,4.61,0,0,0,2.76-.64,2.84,2.84,0,0,0,1.17-2.5,3.1,3.1,0,0,0-1.25-2.56,4.48,4.48,0,0,0-2.68-.63h-1.88v6.33Z"/><path class="cls-3" d="M118.44,162.74h6.75l-.1.54h-6V169h4.84v.54h-4.84v6.27h6.35v.56h-7Z"/><path class="cls-3" d="M129.2,162.74h1.89c2.08,0,3.25.18,4.42,1.07,1.49,1.13,2.25,3,2.25,5.68s-.68,4.43-2,5.6c-1.13,1-2.38,1.27-4.4,1.27H129.2Zm2.19,13.08c1.72,0,3-.22,3.93-1.13a6.82,6.82,0,0,0,1.78-5.14c0-2.78-.81-4.25-1.86-5.2s-2.15-1.09-3.87-1.09h-1.53v12.56Z"/><path class="cls-3" d="M142.1,162.74h6.75l-.1.54h-6V169h4.84v.54h-4.84v6.27h6.35v.56h-7Z"/><path class="cls-3" d="M152.86,162.74h.64v13.08h5.76l-.08.54h-6.32Z"/><path class="cls-3" d="M163,175a4.76,4.76,0,0,1-.62-2.58v-9.69h.64v9.49a4.94,4.94,0,0,0,.55,2.5,3,3,0,0,0,2.82,1.25,3.3,3.3,0,0,0,2.76-1.09,4.36,4.36,0,0,0,.66-2.56v-9.59h.63v9.67a4.27,4.27,0,0,1-.85,2.92,4,4,0,0,1-3.22,1.19C164.59,176.52,163.62,175.94,163,175Z"/><path class="cls-3" d="M175.37,162.74h.78L182,173.52l1,2c0-.55-.06-2.1-.06-2.58l0-10.2h.63v13.62h-.71l-6-11c-.5-.91-.91-1.77-1-1.89,0,.22.06,1.41.06,2.15l0,10.7h-.66Z"/><path class="cls-3" d="M189.25,174.57a8.28,8.28,0,0,1-1.31-5,8.5,8.5,0,0,1,1.39-5.06A4.49,4.49,0,0,1,193,162.6a5.19,5.19,0,0,1,3.36,1.11l-.3.4a5,5,0,0,0-3.06-1,3.86,3.86,0,0,0-3.49,2.16,10,10,0,0,0-.9,4.33,8.32,8.32,0,0,0,1.08,4.56,4.22,4.22,0,0,0,3.69,1.83,5.83,5.83,0,0,0,2.8-.69v-5.16h-3.5l-.12-.54h4.21v6a6.62,6.62,0,0,1-3.45.9A4.74,4.74,0,0,1,189.25,174.57Z"/></svg>